<?xml version="1.0" encoding="UTF-8" standalone="no"?>
<!DOCTYPE svg PUBLIC "-//W3C//DTD SVG 1.1//EN" "http://www.w3.org/Graphics/SVG/1.1/DTD/svg11.dtd">
<svg width="100%" height="100%" viewBox="0 0 5747 5459" version="1.1" xmlns="http://www.w3.org/2000/svg" xmlns:xlink="http://www.w3.org/1999/xlink" xml:space="preserve" xmlns:serif="http://www.serif.com/" style="fill-rule:evenodd;clip-rule:evenodd;stroke-linejoin:round;stroke-miterlimit:2;">
    <g transform="matrix(1,0,0,1,-352.449444,-1283.79)">
        <g transform="matrix(5.555556,0,0,5.532123,4702.893333,5685.168662)">
            <path d="M0,-576.713C22.002,-572.515 169.83,-559.696 170.161,-555.697C164.634,-555.225 -21.029,-555.872 -29.258,-556.11C-37.986,-556.363 -46.716,-556.918 -55.44,-556.823C-62.347,-556.747 -69.107,-556.004 -75.483,-552.366C-85.404,-546.704 -89.964,-532.981 -85.516,-522.71C-78.14,-505.678 -71.075,-488.503 -64.239,-471.246C-57.492,-454.215 -50.937,-437.098 -44.81,-419.838C-41.926,-411.713 -40.094,-403.199 -38.053,-394.796C-35.542,-384.458 -32.805,-374.134 -31.108,-363.651C-29.568,-354.136 -29.378,-344.408 -28.438,-334.789C-27.052,-320.594 -27.546,-306.371 -28.771,-292.257C-29.818,-280.192 -30.306,-267.985 -33.824,-256.184C-35.8,-249.558 -36.507,-242.556 -38.439,-235.913C-40.713,-228.096 -43.757,-220.506 -46.356,-212.78C-51.5,-197.492 -59.488,-183.615 -67.39,-169.667C-77.11,-152.51 -88.922,-136.981 -102.086,-122.322C-110.39,-113.075 -119.017,-104.187 -128.373,-96.087C-138.688,-87.157 -149.273,-78.47 -160.317,-70.473C-170.55,-63.063 -181.427,-56.513 -192.231,-49.928C-208.082,-40.266 -224.707,-32.04 -241.785,-24.795C-254.951,-19.209 -268.147,-13.608 -281.64,-8.902C-296.121,-3.85 -310.888,0.439 -325.674,4.543C-336.606,7.576 -347.706,10.099 -358.846,12.26C-369.997,14.423 -381.286,15.888 -392.524,17.594C-400.361,18.783 -408.195,20.037 -416.067,20.945C-424.191,21.881 -432.349,22.605 -440.511,23.106C-441.236,23.151 -452.107,23.812 -464.323,23.973C-497.691,24.411 -530.462,21.303 -530.462,21.303C-553.086,19.158 -581.115,15.22 -612.991,7.776C-602.08,8.74 -553.87,12.812 -512.357,10.372C-501.926,9.759 -482.923,8.206 -462.027,5.701C-455.691,4.941 -449.82,4.493 -442.137,3.066C-426.554,0.17 -410.937,-2.639 -395.499,-6.202C-377.195,-10.426 -358.947,-14.993 -340.903,-20.203C-329.065,-23.621 -317.658,-28.519 -306.009,-32.612C-290.177,-38.177 -274.764,-44.718 -259.758,-52.212C-250.44,-56.866 -241.235,-61.745 -231.921,-66.406C-218.125,-73.309 -205.283,-81.764 -192.728,-90.641C-184.009,-96.806 -175.322,-103.089 -167.187,-109.988C-157.929,-117.839 -149.044,-126.177 -140.482,-134.787C-133.843,-141.464 -127.946,-148.881 -121.727,-155.976C-108.075,-171.549 -97.822,-189.371 -88.657,-207.743C-83.831,-217.417 -80.725,-227.965 -77.045,-238.192C-75.122,-243.538 -73.244,-248.956 -72.04,-254.492C-69.884,-264.4 -66.762,-274.081 -66.233,-284.382C-65.815,-292.507 -63.598,-300.533 -63.092,-308.66C-62.662,-315.548 -63.514,-322.52 -63.856,-329.452C-63.916,-330.679 -64.556,-331.927 -64.421,-333.108C-63.219,-343.637 -65.777,-353.898 -66.729,-364.255C-67.314,-370.614 -69.156,-376.865 -70.536,-383.143C-71.545,-387.733 -72.707,-392.29 -73.827,-396.855C-77.96,-413.708 -83,-430.286 -88.992,-446.571C-95.551,-464.395 -102.382,-482.122 -108.649,-500.047C-112.069,-509.828 -115.689,-519.779 -115.437,-530.316C-115.224,-539.25 -113.279,-547.881 -108.584,-555.847C-101.951,-567.1 -92.47,-574.578 -80.209,-578.523C-77.196,-579.493 -74.916,-581.012 -72.767,-583.147C-68.162,-587.725 -63.053,-591.374 -56.924,-593.986C-48.493,-600.378 -41.938,-601.124 -32.356,-599.505C-22.747,-597.881 -11.007,-589.444 -4.668,-582.061C-3.048,-580.174 -1.397,-578.312 0,-576.713" style="fill:white;fill-rule:nonzero;"/>
        </g>
        <g transform="matrix(5.555556,0,0,5.532123,3131.421667,3622.685076)">
            <path d="M0,177.687C-10.346,181.466 -20.816,184.807 -31.744,186.643C-36.366,187.42 -40.964,188.362 -45.538,189.384C-57.671,192.096 -69.98,192.966 -82.35,194.007C-98.275,195.347 -114.122,195.641 -130.001,194.577C-137.385,194.081 -144.703,192.599 -152.05,191.559C-153.033,191.42 -154.008,191.135 -154.992,191.103C-168.514,190.663 -181.365,186.805 -194.438,183.834C-214.105,179.365 -232.864,172.471 -251.32,164.593C-279.225,152.681 -305.327,137.611 -329.137,118.79C-339.058,110.947 -348.357,102.313 -357.889,93.982C-361.062,91.209 -364.231,88.404 -367.142,85.365C-381.448,70.435 -394.658,54.664 -406.319,37.496C-415.712,23.666 -423.889,9.256 -431.16,-5.727C-432.849,-9.207 -434.182,-12.86 -436.315,-17.954C-433.868,-16.595 -432.513,-16.23 -431.739,-15.353C-423.181,-5.657 -414.882,4.272 -406.172,13.829C-397.823,22.991 -389.342,32.066 -380.442,40.688C-361.69,58.856 -341.565,75.445 -320.227,90.485C-301.226,103.879 -281.248,115.804 -260.495,126.221C-245.957,133.517 -230.839,139.766 -215.645,145.611C-203.904,150.127 -191.656,153.334 -179.607,157.037C-172.762,159.141 -165.937,161.381 -158.974,163.001C-151.017,164.853 -142.875,165.891 -134.89,167.636C-124.677,169.867 -114.168,170.366 -104.021,172.277C-83.517,176.14 -62.889,175.813 -42.287,176.865C-32.351,177.372 -22.466,176.608 -12.578,175.472C-8.488,175.002 -4.266,175.68 -0.105,175.835C-0.07,176.453 -0.035,177.07 0,177.687" style="fill:white;fill-rule:nonzero;"/>
        </g>
        <g transform="matrix(5.555556,0,0,5.532123,2879.172222,2596.436024)">
            <path d="M0,295.623C-1.3,295.903 -2.611,296.465 -3.899,296.418C-17.113,295.94 -30.385,295.969 -43.513,294.614C-53.307,293.603 -62.932,290.85 -72.597,288.712C-78.151,287.484 -83.689,286.119 -89.137,284.491C-97.648,281.946 -106.237,279.538 -114.507,276.333C-130.164,270.265 -145.468,263.356 -159.959,254.789C-175.509,245.595 -190.649,235.897 -204.854,224.587C-222.061,210.887 -237.789,195.777 -252.113,179.211C-260.22,169.835 -267.884,159.996 -274.922,149.796C-282.239,139.193 -289.202,128.238 -295.159,116.831C-302.906,101.998 -310.044,86.856 -315.352,70.836C-318.69,60.764 -321.546,50.605 -324.395,40.414C-327.336,29.888 -328.456,19.031 -330.326,8.314C-330.795,5.631 -331.041,2.533 -328.785,-0.842C-326.381,4.073 -324.304,8.162 -322.366,12.316C-318.808,19.941 -315.359,27.616 -311.818,35.248C-304.937,50.077 -297.135,64.449 -288.356,78.198C-276.742,96.387 -264.875,114.407 -251.024,131.093C-238.936,145.656 -226.63,160.003 -212.928,173.013C-201.422,183.937 -189.199,194.123 -177.054,204.353C-170.419,209.942 -163.516,215.277 -156.337,220.144C-138.115,232.498 -119.429,244.043 -99.892,254.336C-85.184,262.085 -69.936,268.507 -54.814,275.221C-44.23,279.92 -32.964,283.087 -21.993,286.91C-14.649,289.47 -7.289,291.982 0.065,294.516C0.043,294.885 0.022,295.254 0,295.623" style="fill:white;fill-rule:nonzero;"/>
        </g>
        <g transform="matrix(5.555556,0,0,5.532123,1789.468333,3765.295441)">
            <path d="M0,-363.089C0.042,-359.787 0.143,-357.592 0.085,-355.402C-0.138,-346.923 -0.705,-338.441 -0.578,-329.969C-0.468,-322.545 0.422,-315.134 0.926,-307.714C1.363,-301.278 1.535,-294.816 2.191,-288.402C3.224,-278.304 4.157,-268.166 5.893,-258.176C7.585,-248.434 10.039,-238.808 12.508,-229.221C15.287,-218.433 18.053,-207.612 21.572,-197.055C25.091,-186.497 29.198,-176.1 33.639,-165.891C43.147,-144.036 54.725,-123.266 68.112,-103.55C74.52,-94.111 80.947,-84.6 88.291,-75.902C100.332,-61.641 112.773,-47.676 125.73,-34.246C134.321,-25.34 144.123,-17.605 153.348,-9.306C156.262,-6.683 159.059,-3.931 163.018,-0.191C159.986,-0.305 158.468,0 157.237,-0.462C138.671,-7.427 120.969,-16.09 104.4,-27.066C82.49,-41.581 63.155,-58.995 46.319,-79.08C38.842,-87.999 32.295,-97.718 25.6,-107.266C16.473,-120.283 8.993,-134.259 2.702,-148.842C-3.394,-162.972 -8.149,-177.548 -12.384,-192.371C-15.606,-203.646 -17.659,-215.102 -19.324,-226.562C-21.609,-242.287 -22.346,-258.221 -21.148,-274.172C-20.494,-282.876 -20.322,-291.616 -19.718,-300.325C-19.514,-303.264 -18.528,-306.141 -18.101,-309.075C-16.206,-322.12 -12.615,-334.783 -8.725,-347.302C-7.116,-352.477 -6.085,-358.44 0,-363.089" style="fill:white;fill-rule:nonzero;"/>
        </g>
        <g transform="matrix(5.555556,0,0,5.532123,3468.292222,5097.807205)">
            <path d="M0,-34.213C-6.9,-28.323 -14.614,-24.198 -22.671,-20.872C-37.986,-14.549 -53.329,-8.242 -68.928,-2.68C-79.576,1.116 -90.626,3.84 -101.592,6.674C-114.763,10.079 -127.968,13.416 -141.288,16.153C-149.264,17.792 -157.635,17.579 -165.562,19.375C-174.382,21.372 -183.318,21.219 -192.171,22.243C-200.036,23.153 -208.032,23.072 -215.973,23.155C-228.66,23.288 -241.368,23.619 -254.034,23.081C-267.693,22.502 -281.369,21.46 -294.936,19.79C-305.233,18.521 -315.419,16.165 -325.567,13.904C-336.918,11.376 -348.255,8.703 -359.44,5.537C-367.996,3.116 -376.373,0.009 -384.707,-3.121C-393.977,-6.603 -403.297,-10.051 -412.263,-14.229C-435.161,-24.899 -457.278,-36.989 -477.472,-52.319C-479.325,-53.725 -480.97,-55.406 -481.99,-57.832C-474.074,-54.846 -466.14,-51.908 -458.249,-48.857C-451.815,-46.369 -445.509,-43.531 -439.01,-41.236C-429.919,-38.026 -420.711,-35.148 -411.534,-32.184C-407.542,-30.895 -403.517,-29.7 -399.485,-28.542C-388.537,-25.399 -377.625,-22.114 -366.604,-19.249C-359.66,-17.443 -352.572,-16.145 -345.502,-14.88C-331.363,-12.351 -317.193,-9.999 -303.034,-7.583C-302.298,-7.458 -301.548,-7.403 -300.802,-7.345C-275.232,-5.372 -249.666,-2.618 -224.013,-3.079C-213.33,-3.271 -202.538,-2.249 -192,-3.527C-178.704,-5.139 -165.272,-4.551 -152.03,-7.035C-143.301,-8.673 -134.279,-8.702 -125.408,-9.645C-119.003,-10.326 -112.502,-10.79 -106.273,-12.296C-94.463,-15.15 -82.28,-15.674 -70.509,-18.982C-60.781,-21.717 -50.525,-22.513 -40.607,-24.649C-31.206,-26.673 -21.956,-29.388 -12.607,-31.668C-8.446,-32.683 -4.205,-33.374 0,-34.213" style="fill:white;fill-rule:nonzero;"/>
        </g>
        <g transform="matrix(5.555556,0,0,5.532123,2597.274444,1312.670556)">
            <path d="M0,330.667C-1.638,329.306 -3.36,328.033 -4.899,326.569C-18.307,313.816 -29.27,299.114 -38.314,283.07C-46.869,267.896 -53.999,252.03 -58.176,235.001C-60.594,225.145 -64.137,215.386 -65.061,205.388C-66.198,193.079 -68.638,180.798 -67.502,168.268C-66.67,159.087 -66.719,149.829 -66.144,140.619C-65.946,137.437 -64.919,134.315 -64.498,131.135C-62.736,117.819 -59.148,104.912 -55.168,92.164C-52.518,83.674 -49.052,75.347 -45.086,67.378C-33.496,44.09 -19.178,22.698 0.434,5.244C2.21,3.663 4.192,2.314 7.188,0C7.23,2.975 7.733,4.725 7.198,6.058C2.318,18.21 -3.082,30.164 -7.636,42.434C-10.893,51.207 -12.844,60.455 -15.843,69.334C-17.596,74.521 -18.691,79.795 -19.925,85.092C-22.853,97.661 -26.028,110.15 -26.824,123.112C-27.051,126.795 -27.818,130.469 -28.605,134.089C-31.594,147.854 -31.669,161.949 -30.988,175.755C-30.344,188.782 -30.413,202.001 -27.664,214.946C-26.229,221.706 -25.966,228.706 -24.821,235.539C-23.678,242.361 -22.152,249.121 -20.685,255.886C-19.694,260.458 -18.469,264.98 -17.426,269.542C-13.105,288.449 -6.161,306.507 0.347,324.708C0.894,326.237 1.152,327.87 1.544,329.454C1.029,329.859 0.515,330.263 0,330.667" style="fill:white;fill-rule:nonzero;"/>
        </g>
        <g transform="matrix(5.555556,0,0,5.532123,2402.262778,5312.880626)">
            <path d="M0,223.151C6.465,220.865 12.435,218.784 18.384,216.644C29.745,212.558 41.202,208.713 52.417,204.26C64.982,199.272 77.426,193.945 89.731,188.345C99.867,183.732 109.837,178.72 119.679,173.504C141.394,161.998 162.245,149.023 182.448,135.063C192.439,128.159 201.837,120.396 211.506,113.025C228.109,100.367 243.229,86.006 258.356,71.696C273.146,57.705 287.019,42.793 299.981,27.06C307.396,18.06 314.87,9.106 322.408,0.208C323.426,-0.993 324.978,-1.741 327.151,-2.085C325.978,0.987 324.994,4.147 323.602,7.116C311.565,32.785 296.597,56.735 278.859,78.747C262.993,98.433 245.487,116.685 225.999,133.005C207.282,148.681 187.633,162.949 166.451,175.045C150.307,184.265 133.731,192.591 116.406,199.522C101.738,205.39 86.819,210.422 71.681,214.736C62.21,217.436 52.352,218.814 42.634,220.599C34.354,222.12 26.06,223.669 17.707,224.639C12.564,225.236 7.296,224.806 2.086,224.729C1.556,224.721 1.038,223.963 0,223.151" style="fill:white;fill-rule:nonzero;"/>
        </g>
        <g transform="matrix(5.555556,0,0,5.532123,4578.139444,6748.426505)">
            <path d="M0,-250.485C1.924,-244.277 2.476,-239.436 2.392,-234.702C2.078,-217.044 -0.022,-199.624 -3.495,-182.234C-7.411,-162.626 -13.613,-143.801 -21.65,-125.732C-32.637,-101.033 -46.183,-77.645 -64.346,-57.316C-73.109,-47.51 -81.582,-37.322 -91.273,-28.5C-101.703,-19.006 -112.436,-9.638 -124.895,-2.651C-126.581,-1.705 -128.026,0 -130.563,-2.015C-129.979,-2.993 -129.494,-4.033 -128.809,-4.919C-118.493,-18.278 -107.927,-31.452 -97.887,-45.015C-90.228,-55.362 -82.968,-66.029 -76.003,-76.857C-68.117,-89.118 -60.134,-101.388 -53.336,-114.257C-45.494,-129.1 -38.606,-144.473 -31.857,-159.859C-26.308,-172.508 -21.351,-185.43 -16.548,-198.386C-13.458,-206.722 -11.13,-215.34 -8.448,-223.828C-5.807,-232.188 -3.152,-240.543 0,-250.485" style="fill:white;fill-rule:nonzero;"/>
        </g>
        <g transform="matrix(5.555556,0,0,5.532123,4962.368889,6397.655659)">
            <path d="M0,-182.823C1.288,-182.227 2.181,-181.814 3.582,-181.166C23.805,-119.105 18.202,-59.216 -12.954,0C-13.841,-2.494 -14.643,-3.681 -14.613,-4.845C-14.47,-10.314 -14.419,-15.827 -12.135,-20.979C-11.833,-21.662 -11.427,-22.341 -11.314,-23.06C-9.818,-32.607 -7.989,-42.123 -7.018,-51.724C-6.168,-60.127 -4.7,-68.4 -3.509,-76.731C-2.173,-86.075 -2.105,-95.616 -1.757,-105.082C-1.017,-125.268 -0.428,-145.46 0.15,-165.652C0.213,-167.862 -0.353,-170.085 -0.358,-172.303C-0.365,-175.712 -0.138,-179.122 0,-182.823" style="fill:white;fill-rule:nonzero;"/>
        </g>
        <g transform="matrix(5.555556,0,0,5.532123,5554.783889,5318.302105)">
            <path d="M0,93.66C-2.952,87.495 -6.258,81.472 -8.793,75.14C-17.805,52.631 -26.596,30.033 -35.338,7.416C-36.164,5.28 -36.056,2.783 -36.445,0C-31.764,1.055 -29.669,3.977 -27.487,6.579C-14.39,22.204 -5.054,39.865 -0.067,59.631C2.36,69.25 3.964,79.098 2.541,89.127C2.34,90.546 1.993,91.945 1.714,93.353L0,93.66Z" style="fill:white;fill-rule:nonzero;"/>
        </g>
    </g>
</svg>
